# xmcd
#
# Track frame offsets: 
#        150
#        14225
#        33225
#        52001
#        65966
#        81846
#        95880
#        107789
#        119996
#        129754
#        145950
#        161693
#        175475
#        189315
#        205944
#        218250
#
# Disc length: 3161 seconds
#
# Revision: 0
# Processed by: cddbd v1.4PL0 Copyright (c) Steve Scherf et al.
# Submitted via: ExactAudioCopy v0.90b4
#
DISCID=f50c5710
DTITLE=Various Artist - Gaúcho Bom de Dança
DYEAR=1900
DGENRE=Country
TTITLE0=Gaúcho Da Fronteira - Cara E Coração
TTITLE1=João Luiz Correa - No Rancho Da Candoca
TTITLE2=Garotos De Ouro - A.M.M.M. (Associação Dos Maridos Mandados Pe
TTITLE2=las "Muié")
TTITLE3=Oswaldir E Carlos Magrão - Tempero De Amor
TTITLE4=Os Monarcas - Coisa Irritante
TTITLE5=Fogo De Chão - Pataqueiro
TTITLE6=Baitaca - Meu Rio Grande é Deste Jeito
TTITLE7=Os Serranos - Gauchona (A Gostosona)
TTITLE8=Grupo Tradição - Capricha Gaiteiro
TTITLE9=Gaúcho Da Fronteira - Sumanta De Amor
TTITLE10=João Luiz Corea - Gineteando
TTITLE11=Oswaldir E Carlos Magrão - Madrugando
TTITLE12=Os Monarcas - Minha Querida
TTITLE13=Fogo De Chão - Dia A Dia
TTITLE14=Grupo Tradição - Morenaça
TTITLE15=Baitaca - A Historia Do Tico Louco
EXTD=
EXTT0=
EXTT1=
EXTT2=
EXTT3=
EXTT4=
EXTT5=
EXTT6=
EXTT7=
EXTT8=
EXTT9=
EXTT10=
EXTT11=
EXTT12=
EXTT13=
EXTT14=
EXTT15=
PLAYORDER=
